<svg width="16" height="17" viewBox="0 0 16 17" fill="none" xmlns="http://www.w3.org/2000/svg">
<g id="link-04">
<path id="Vector" d="M6.66699 9.31917C6.76139 9.47377 6.87346 9.6201 7.00313 9.75504C7.80813 10.5928 9.03513 10.7238 9.97206 10.148C10.1457 10.0412 10.3093 9.9103 10.4585 9.75504L12.6181 7.50744C13.5722 6.5144 13.5722 4.90434 12.6181 3.91129C11.6639 2.91824 10.1169 2.91824 9.16266 3.91129L8.68699 4.40636" stroke="#3D3D3D" stroke-width="1.5" stroke-linecap="round"/>
<path id="Vector_2" d="M7.31386 12.5933L6.83799 13.0885C5.88383 14.0816 4.3368 14.0816 3.38263 13.0885C2.42845 12.0955 2.42845 10.4855 3.38263 9.4924L5.54224 7.2448C6.49641 6.25174 8.04346 6.25173 8.99759 7.2448C9.12726 7.37966 9.23926 7.526 9.33366 7.68053" stroke="#3D3D3D" stroke-width="1.5" stroke-linecap="round"/>
</g>
</svg>
