<svg width="135" height="35" viewBox="0 0 135 35" fill="none" xmlns="http://www.w3.org/2000/svg">
<g filter="url(#filter0_d_990_3228)">
<path d="M6.84 24.5C6.088 24.5 5.512 24.308 5.112 23.924C4.728 23.524 4.536 22.956 4.536 22.22V9.86C4.536 9.124 4.728 8.564 5.112 8.18C5.512 7.78 6.088 7.58 6.84 7.58H11.544C14.488 7.58 16.76 8.316 18.36 9.788C19.976 11.26 20.784 13.34 20.784 16.028C20.784 17.372 20.576 18.572 20.16 19.628C19.744 20.668 19.144 21.556 18.36 22.292C17.576 23.012 16.608 23.564 15.456 23.948C14.32 24.316 13.016 24.5 11.544 24.5H6.84ZM8.952 20.924H11.256C12.104 20.924 12.832 20.82 13.44 20.612C14.064 20.404 14.576 20.1 14.976 19.7C15.392 19.3 15.696 18.796 15.888 18.188C16.096 17.58 16.2 16.86 16.2 16.028C16.2 14.364 15.792 13.14 14.976 12.356C14.16 11.556 12.92 11.156 11.256 11.156H8.952V20.924ZM25.2272 24.716C24.5552 24.716 24.0352 24.516 23.6672 24.116C23.2992 23.716 23.1152 23.14 23.1152 22.388V14.804C23.1152 14.052 23.2992 13.476 23.6672 13.076C24.0352 12.676 24.5552 12.476 25.2272 12.476C25.9152 12.476 26.4432 12.676 26.8112 13.076C27.1952 13.476 27.3872 14.052 27.3872 14.804V22.388C27.3872 23.14 27.2032 23.716 26.8352 24.116C26.4672 24.516 25.9312 24.716 25.2272 24.716ZM25.2272 10.772C24.4752 10.772 23.8912 10.596 23.4752 10.244C23.0752 9.892 22.8752 9.38 22.8752 8.708C22.8752 8.052 23.0752 7.548 23.4752 7.196C23.8912 6.844 24.4752 6.668 25.2272 6.668C26.0112 6.668 26.6032 6.844 27.0032 7.196C27.4032 7.548 27.6032 8.052 27.6032 8.708C27.6032 9.38 27.4032 9.892 27.0032 10.244C26.6032 10.596 26.0112 10.772 25.2272 10.772ZM34.5692 24.764C33.8652 24.764 33.1452 24.708 32.4092 24.596C31.6892 24.5 31.0332 24.316 30.4412 24.044C30.0412 23.884 29.7532 23.668 29.5772 23.396C29.4172 23.124 29.3372 22.836 29.3372 22.532C29.3532 22.228 29.4412 21.956 29.6012 21.716C29.7772 21.46 30.0012 21.284 30.2732 21.188C30.5612 21.076 30.8812 21.084 31.2332 21.212C31.9052 21.452 32.5052 21.628 33.0332 21.74C33.5772 21.836 34.0972 21.884 34.5932 21.884C35.1852 21.884 35.6092 21.804 35.8652 21.644C36.1212 21.468 36.2492 21.244 36.2492 20.972C36.2492 20.732 36.1612 20.548 35.9852 20.42C35.8252 20.292 35.5932 20.204 35.2892 20.156L32.6252 19.724C31.6332 19.548 30.8652 19.188 30.3212 18.644C29.7772 18.084 29.5052 17.356 29.5052 16.46C29.5052 15.628 29.7372 14.916 30.2012 14.324C30.6812 13.716 31.3292 13.252 32.1452 12.932C32.9772 12.596 33.9292 12.428 35.0012 12.428C35.7212 12.428 36.3772 12.484 36.9692 12.596C37.5612 12.692 38.1372 12.876 38.6972 13.148C39.0492 13.292 39.2972 13.5 39.4412 13.772C39.5852 14.044 39.6412 14.332 39.6092 14.636C39.5772 14.924 39.4732 15.196 39.2972 15.452C39.1372 15.692 38.9132 15.86 38.6252 15.956C38.3372 16.036 38.0012 16.012 37.6172 15.884C37.0892 15.676 36.6172 15.524 36.2012 15.428C35.8012 15.332 35.4252 15.284 35.0732 15.284C34.4172 15.284 33.9532 15.372 33.6812 15.548C33.4092 15.724 33.2732 15.948 33.2732 16.22C33.2732 16.428 33.3452 16.604 33.4892 16.748C33.6332 16.876 33.8572 16.964 34.1612 17.012L36.8252 17.468C37.8492 17.628 38.6332 17.98 39.1772 18.524C39.7372 19.052 40.0172 19.772 40.0172 20.684C40.0172 21.98 39.5212 22.988 38.5292 23.708C37.5372 24.412 36.2172 24.764 34.5692 24.764ZM43.8834 24.716C43.2114 24.716 42.6914 24.532 42.3234 24.164C41.9554 23.796 41.7714 23.26 41.7714 22.556V9.524C41.7714 8.82 41.9554 8.284 42.3234 7.916C42.6914 7.548 43.2114 7.364 43.8834 7.364C44.5714 7.364 45.0994 7.548 45.4674 7.916C45.8514 8.284 46.0434 8.82 46.0434 9.524V14.756H45.6594C46.0434 14.004 46.5874 13.428 47.2914 13.028C48.0114 12.628 48.8274 12.428 49.7394 12.428C50.6834 12.428 51.4594 12.612 52.0674 12.98C52.6754 13.332 53.1314 13.892 53.4354 14.66C53.7394 15.412 53.8914 16.364 53.8914 17.516V22.556C53.8914 23.26 53.7074 23.796 53.3394 24.164C52.9714 24.532 52.4434 24.716 51.7554 24.716C51.0674 24.716 50.5394 24.532 50.1714 24.164C49.8034 23.796 49.6194 23.26 49.6194 22.556V17.684C49.6194 16.964 49.4914 16.452 49.2354 16.148C48.9954 15.844 48.6354 15.692 48.1554 15.692C47.5154 15.692 47.0034 15.9 46.6194 16.316C46.2354 16.716 46.0434 17.26 46.0434 17.948V22.556C46.0434 23.996 45.3234 24.716 43.8834 24.716ZM62.3501 24.764C61.0221 24.764 59.8621 24.516 58.8701 24.02C57.8941 23.524 57.1341 22.812 56.5901 21.884C56.0461 20.94 55.7741 19.836 55.7741 18.572C55.7741 17.612 55.9261 16.756 56.2301 16.004C56.5341 15.236 56.9741 14.588 57.5501 14.06C58.1421 13.532 58.8381 13.132 59.6381 12.86C60.4541 12.572 61.3581 12.428 62.3501 12.428C62.8141 12.428 63.3021 12.476 63.8141 12.572C64.3261 12.652 64.8541 12.812 65.3981 13.052C65.7821 13.196 66.0461 13.42 66.1901 13.724C66.3501 14.012 66.4141 14.324 66.3821 14.66C66.3661 14.996 66.2701 15.3 66.0941 15.572C65.9341 15.844 65.7021 16.028 65.3981 16.124C65.1101 16.22 64.7821 16.18 64.4141 16.004C64.1581 15.876 63.8861 15.788 63.5981 15.74C63.3261 15.676 63.0621 15.644 62.8061 15.644C62.3741 15.644 61.9901 15.708 61.6541 15.836C61.3341 15.964 61.0621 16.156 60.8381 16.412C60.6141 16.652 60.4381 16.956 60.3101 17.324C60.1981 17.692 60.1421 18.108 60.1421 18.572C60.1421 19.5 60.3741 20.228 60.8381 20.756C61.3021 21.284 61.9581 21.548 62.8061 21.548C63.0621 21.548 63.3261 21.524 63.5981 21.476C63.8701 21.412 64.1421 21.316 64.4141 21.188C64.7821 21.012 65.1101 20.98 65.3981 21.092C65.6861 21.188 65.9181 21.372 66.0941 21.644C66.2701 21.916 66.3661 22.22 66.3821 22.556C66.3981 22.876 66.3261 23.188 66.1661 23.492C66.0061 23.78 65.7341 23.996 65.3501 24.14C64.8221 24.38 64.3021 24.54 63.7901 24.62C63.2941 24.716 62.8141 24.764 62.3501 24.764ZM73.6928 24.764C72.3808 24.764 71.2368 24.516 70.2608 24.02C69.2848 23.524 68.5248 22.812 67.9808 21.884C67.4368 20.956 67.1648 19.86 67.1648 18.596C67.1648 17.636 67.3168 16.78 67.6208 16.028C67.9248 15.26 68.3648 14.612 68.9408 14.084C69.5168 13.54 70.2048 13.132 71.0048 12.86C71.8048 12.572 72.7008 12.428 73.6928 12.428C75.0048 12.428 76.1488 12.676 77.1248 13.172C78.1008 13.668 78.8528 14.38 79.3808 15.308C79.9248 16.22 80.1968 17.316 80.1968 18.596C80.1968 19.54 80.0448 20.396 79.7408 21.164C79.4368 21.932 78.9968 22.588 78.4208 23.132C77.8608 23.66 77.1728 24.068 76.3568 24.356C75.5568 24.628 74.6688 24.764 73.6928 24.764ZM73.6928 21.62C74.1248 21.62 74.5088 21.516 74.8448 21.308C75.1808 21.084 75.4368 20.756 75.6128 20.324C75.8048 19.876 75.9008 19.3 75.9008 18.596C75.9008 17.524 75.6928 16.756 75.2768 16.292C74.8608 15.812 74.3328 15.572 73.6928 15.572C73.2608 15.572 72.8768 15.676 72.5408 15.884C72.2048 16.092 71.9408 16.42 71.7488 16.868C71.5568 17.3 71.4608 17.876 71.4608 18.596C71.4608 19.652 71.6688 20.42 72.0848 20.9C72.5008 21.38 73.0368 21.62 73.6928 21.62ZM87.0816 24.716C86.5216 24.716 86.0416 24.58 85.6416 24.308C85.2576 24.02 84.9376 23.596 84.6816 23.036L81.2496 15.188C81.0576 14.708 80.9936 14.26 81.0576 13.844C81.1216 13.428 81.3216 13.1 81.6576 12.86C82.0096 12.604 82.4896 12.476 83.0976 12.476C83.6096 12.476 84.0176 12.596 84.3216 12.836C84.6416 13.06 84.9296 13.508 85.1856 14.18L87.6096 20.42H86.7936L89.3376 14.156C89.5936 13.5 89.8816 13.06 90.2016 12.836C90.5216 12.596 90.9616 12.476 91.5216 12.476C92.0016 12.476 92.3856 12.604 92.6736 12.86C92.9776 13.1 93.1616 13.428 93.2256 13.844C93.2896 14.26 93.2096 14.708 92.9856 15.188L89.4816 23.06C89.2416 23.62 88.9216 24.036 88.5216 24.308C88.1376 24.58 87.6576 24.716 87.0816 24.716ZM100.985 24.764C99.5447 24.764 98.2967 24.516 97.2407 24.02C96.2007 23.508 95.4007 22.788 94.8407 21.86C94.2807 20.932 94.0007 19.836 94.0007 18.572C94.0007 17.356 94.2647 16.292 94.7927 15.38C95.3367 14.452 96.0727 13.732 97.0007 13.22C97.9447 12.692 99.0167 12.428 100.217 12.428C101.097 12.428 101.897 12.572 102.617 12.86C103.337 13.132 103.953 13.54 104.465 14.084C104.977 14.612 105.361 15.252 105.617 16.004C105.889 16.756 106.025 17.596 106.025 18.524C106.025 18.844 105.937 19.084 105.761 19.244C105.585 19.388 105.305 19.46 104.921 19.46H97.5767V17.444H102.905L102.521 17.756C102.521 17.164 102.441 16.684 102.281 16.316C102.121 15.948 101.881 15.668 101.561 15.476C101.257 15.284 100.873 15.188 100.409 15.188C99.9127 15.188 99.4807 15.308 99.1127 15.548C98.7607 15.772 98.4887 16.108 98.2967 16.556C98.1047 17.004 98.0087 17.564 98.0087 18.236V18.452C98.0087 19.588 98.2567 20.404 98.7527 20.9C99.2647 21.38 100.049 21.62 101.105 21.62C101.457 21.62 101.857 21.58 102.305 21.5C102.769 21.404 103.209 21.276 103.625 21.116C104.041 20.956 104.401 20.932 104.705 21.044C105.009 21.14 105.241 21.316 105.401 21.572C105.577 21.812 105.673 22.092 105.689 22.412C105.705 22.716 105.633 23.02 105.473 23.324C105.313 23.612 105.049 23.836 104.681 23.996C104.121 24.252 103.521 24.444 102.881 24.572C102.257 24.7 101.625 24.764 100.985 24.764ZM110.049 24.716C109.345 24.716 108.801 24.532 108.417 24.164C108.049 23.796 107.865 23.26 107.865 22.556V14.612C107.865 13.924 108.041 13.396 108.393 13.028C108.761 12.66 109.281 12.476 109.953 12.476C110.625 12.476 111.137 12.66 111.489 13.028C111.841 13.396 112.017 13.924 112.017 14.612V15.596H111.777C111.937 14.636 112.345 13.876 113.001 13.316C113.673 12.756 114.505 12.46 115.497 12.428C115.961 12.412 116.305 12.532 116.529 12.788C116.769 13.028 116.897 13.484 116.913 14.156C116.913 14.732 116.793 15.188 116.553 15.524C116.313 15.86 115.857 16.06 115.185 16.124L114.633 16.172C113.785 16.252 113.169 16.492 112.785 16.892C112.401 17.276 112.209 17.852 112.209 18.62V22.556C112.209 23.26 112.025 23.796 111.657 24.164C111.289 24.532 110.753 24.716 110.049 24.716ZM122.43 29.036C121.934 29.036 121.534 28.908 121.23 28.652C120.926 28.396 120.734 28.06 120.654 27.644C120.59 27.228 120.662 26.788 120.87 26.324L122.478 22.844V24.572L118.374 15.188C118.166 14.708 118.094 14.26 118.158 13.844C118.238 13.428 118.454 13.1 118.806 12.86C119.158 12.604 119.638 12.476 120.246 12.476C120.758 12.476 121.166 12.596 121.47 12.836C121.79 13.06 122.078 13.508 122.334 14.18L124.734 20.42H123.918L126.462 14.156C126.718 13.5 127.006 13.06 127.326 12.836C127.662 12.596 128.11 12.476 128.67 12.476C129.15 12.476 129.534 12.604 129.822 12.86C130.11 13.1 130.286 13.428 130.35 13.844C130.414 14.26 130.342 14.708 130.134 15.188L124.686 27.428C124.398 28.068 124.078 28.492 123.726 28.7C123.39 28.924 122.958 29.036 122.43 29.036Z" fill="url(#paint0_linear_990_3228)"/>
</g>
<defs>
<filter id="filter0_d_990_3228" x="-1" y="-2.5" width="136" height="41" filterUnits="userSpaceOnUse" color-interpolation-filters="sRGB">
<feFlood flood-opacity="0" result="BackgroundImageFix"/>
<feColorMatrix in="SourceAlpha" type="matrix" values="0 0 0 0 0 0 0 0 0 0 0 0 0 0 0 0 0 0 127 0" result="hardAlpha"/>
<feOffset dy="1"/>
<feGaussianBlur stdDeviation="2"/>
<feComposite in2="hardAlpha" operator="out"/>
<feColorMatrix type="matrix" values="0 0 0 0 0 0 0 0 0 0 0 0 0 0 0 0 0 0 0.15 0"/>
<feBlend mode="normal" in2="BackgroundImageFix" result="effect1_dropShadow_990_3228"/>
<feBlend mode="normal" in="SourceGraphic" in2="effect1_dropShadow_990_3228" result="shape"/>
</filter>
<linearGradient id="paint0_linear_990_3228" x1="3" y1="17" x2="131" y2="17" gradientUnits="userSpaceOnUse">
<stop stop-color="#F27121"/>
<stop offset="0.58" stop-color="#E94057"/>
<stop offset="1" stop-color="#F27121"/>
</linearGradient>
</defs>
</svg>
